<?xml version="1.0" encoding="UTF-8" standalone="no"?>
<svg width="44px" height="40px" viewBox="0 0 44 40" version="1.1" xmlns="http://www.w3.org/2000/svg" xmlns:xlink="http://www.w3.org/1999/xlink">
    <!-- Generator: sketchtool 40.2 (33826) - http://www.bohemiancoding.com/sketch -->
    <title>E12A28DD-4D80-44E2-A10A-22D10B08E0BE</title>
    <desc>Created with sketchtool.</desc>
    <defs></defs>
    <g id="Page-1" stroke="none" stroke-width="1" fill="none" fill-rule="evenodd">
        <g id="Contact" transform="translate(-446.000000, -360.000000)" fill="#9B9B9B">
            <path d="M490,400 L480.2754,400 L480.2754,385.9384 C480.2754,382.257796 478.754233,379.74515 475.409219,379.74515 C472.850659,379.74515 471.427799,381.440738 470.765522,383.074854 C470.517168,383.661395 470.555974,384.478453 470.555974,385.295511 L470.555974,400 L460.921919,400 C460.921919,400 461.046096,375.091247 460.921919,372.827047 L470.555974,372.827047 L470.555974,377.091631 C471.125118,375.226996 474.203669,372.565794 479.116416,372.565794 C485.21143,372.565794 490,376.474355 490,384.890824 L490,400 L490,400 Z M451.17921,369.428187 L451.117121,369.428187 C448.0127,369.428187 446,367.350964 446,364.717936 C446,362.033681 448.072201,360 451.238711,360 C454.402634,360 456.348071,362.028559 456.41016,364.710252 C456.41016,367.34328 454.402634,369.428187 451.17921,369.428187 L451.17921,369.428187 L451.17921,369.428187 Z M447.109831,372.827047 L455.685795,372.827047 L455.685795,400 L447.109831,400 L447.109831,372.827047 L447.109831,372.827047 Z" id="LinkedIn"></path>
        </g>
    </g>
</svg>